<?xml version="1.0" encoding="UTF-8"?>
<svg version="1.1" xmlns="http://www.w3.org/2000/svg" width="686" height="693">
<path d="M0 0 C9.40876601 8.45083616 18.14835134 17.19311476 25.92041016 27.17089844 C26.484375 27.88697266 27.04833984 28.60304688 27.62939453 29.34082031 C46.63536656 53.59817675 62.49341645 80.09749306 72.92041016 109.17089844 C73.31881104 110.27119385 73.71721191 111.37148926 74.12768555 112.50512695 C77.43947669 121.99508046 79.73067563 131.49114549 81.60791016 141.35839844 C81.75793488 142.13481689 81.90795959 142.91123535 82.06253052 143.71118164 C84.8915141 158.49077718 86.46076907 173.11461305 86.92041016 188.17089844 C86.95215332 189.09241699 86.98389648 190.01393555 87.01660156 190.96337891 C87.60154464 210.37415858 85.2658827 229.31015992 81.47802734 248.31884766 C80.9099714 251.22428967 80.38582056 254.13542985 79.86572266 257.04980469 C74.59122446 285.59414785 62.87411339 313.15098131 46.38574219 337.04345703 C44.8250654 339.30932466 43.29146555 341.59205943 41.76025391 343.87792969 C30.28366214 360.93638087 18.6187422 378.27473759 2.74853516 391.59667969 C0.87577525 393.20933405 -0.85001561 394.90626527 -2.57958984 396.67089844 C-5.57166558 399.71025303 -8.70293003 402.52272078 -11.93505859 405.30371094 C-14.23066413 407.30243488 -16.46438584 409.36035073 -18.70458984 411.42089844 C-33.62667764 424.85763293 -50.06298186 435.73749113 -67.37255859 445.82714844 C-71.92690748 448.48301556 -76.43743885 451.20333171 -80.93701172 453.95068359 C-89.32862004 459.05953901 -97.77986371 463.76863571 -106.64501953 467.99853516 C-109.55386593 469.3992853 -112.44489635 470.83437176 -115.33740234 472.26855469 C-138.35972192 483.61916257 -161.51483053 491.80112961 -186.07958984 499.17089844 C-188.13560671 499.79711094 -190.19159786 500.42340792 -192.24755859 501.04980469 C-232.09182633 513.07143877 -284.15651893 528.62388882 -326.07958984 521.17089844 C-326.07958984 520.18089844 -326.07958984 519.19089844 -326.07958984 518.17089844 C-313.24346806 513.89936341 -300.34484621 510.41205636 -287.18902588 507.27630615 C-265.37875155 502.04797433 -244.15581276 495.82353932 -223.07958984 488.17089844 C-222.12279327 487.82578217 -222.12279327 487.82578217 -221.14666748 487.47369385 C-199.46875585 481.13925783 -199.46875585 481.13925783 -182.07958984 468.17089844 C-182.00686423 465.6162963 -182.00686423 465.6162963 -183.07958984 463.17089844 C-186.39158021 460.81673107 -189.14267859 459.73635275 -193.14208984 459.17089844 C-194.20169922 459.01105469 -195.26130859 458.85121094 -196.35302734 458.68652344 C-198.296817 458.41757141 -200.24075201 458.14952969 -202.18603516 457.89160156 C-244.70547538 452.23220673 -289.63940106 439.54643779 -324.07958984 413.17089844 C-325.17666057 412.34850219 -326.2743171 411.52688682 -327.37255859 410.70605469 C-334.10228585 405.63871837 -340.56847012 400.29801177 -346.96240234 394.81542969 C-349.7808874 392.40540815 -352.67348642 390.09972245 -355.57958984 387.79589844 C-366.30948691 379.00269313 -375.21249525 369.38647258 -382.9296875 357.87646484 C-384.75097342 355.17508407 -386.64234814 352.52285434 -388.51708984 349.85839844 C-389.6464279 348.20980179 -390.77562192 346.56109223 -391.89794922 344.90771484 C-392.69935608 343.72977923 -393.5055108 342.55506248 -394.31591797 341.38330078 C-415.91012604 310.03873082 -427.79388421 276.58889078 -434.07958984 239.17089844 C-434.25603027 238.1920166 -434.4324707 237.21313477 -434.61425781 236.20458984 C-445.51141401 175.06603559 -430.94875321 106.77006486 -397.07958984 55.17089844 C-396.64179199 54.5004248 -396.20399414 53.82995117 -395.75292969 53.13916016 C-385.88507657 38.13812224 -375.01960367 23.5829029 -362.52197266 10.66455078 C-361.514839 9.62161853 -360.51471552 8.57189113 -359.52001953 7.51708984 C-347.42938056 -5.29176917 -334.00384998 -15.52246396 -319.07958984 -24.82910156 C-318.14493896 -25.41747803 -317.21028809 -26.00585449 -316.24731445 -26.61206055 C-229.79041003 -80.74793879 -132.54061796 -80.0397621 0 0 Z M-212.14208984 -32.82910156 C-213.26988868 -30.81030812 -213.26988868 -30.81030812 -213.01708984 -28.26660156 C-211.84428383 -25.21730592 -210.91924339 -24.42699242 -208.07958984 -22.82910156 C-204.80119923 -22.64609813 -204.80119923 -22.64609813 -201.26708984 -23.07910156 C-199.38570313 -23.25505859 -199.38570313 -23.25505859 -197.46630859 -23.43457031 C-195.16424337 -23.70274631 -192.86785928 -24.02384397 -190.57958984 -24.39160156 C-181.93219678 -25.4725257 -171.91509877 -26.34751861 -164.07958984 -21.82910156 C-159.50273602 -16.25106097 -159.69246495 -9.72786573 -160.07958984 -2.82910156 C-161.55793956 9.42810177 -166.2117799 18.41135078 -175.89208984 26.04589844 C-176.75962891 26.71492188 -177.62716797 27.38394531 -178.52099609 28.07324219 C-181.00499234 30.10973987 -183.14200698 32.26126059 -185.32958984 34.60839844 C-187.81496528 37.15904636 -188.96004356 38.12804222 -192.39208984 39.35839844 C-195.07958984 39.17089844 -195.07958984 39.17089844 -196.89208984 37.98339844 C-199.02153453 34.73319339 -199.22376721 31.2774073 -199.47412109 27.46777344 C-199.57756836 26.12005859 -199.57756836 26.12005859 -199.68310547 24.74511719 C-199.82121685 22.87867747 -199.94901079 21.01144245 -200.06591797 19.14355469 C-200.77769088 10.31253149 -203.50801751 3.85883762 -210.03271484 -2.21972656 C-215.75556912 -6.71937534 -221.65130987 -9.64987997 -229.03662109 -9.19238281 C-232.1333166 -8.64172759 -234.4651171 -7.55082751 -237.07958984 -5.82910156 C-239.60058922 -2.0476025 -239.48055016 -0.32723108 -239.07958984 4.17089844 C-238.15725481 6.95110953 -236.92860797 9.54247393 -235.64208984 12.17089844 C-233.21089269 17.19697731 -231.47330184 21.49722728 -231.07958984 27.17089844 C-232.01708984 29.60839844 -232.01708984 29.60839844 -233.07958984 31.17089844 C-237.2186777 30.67111062 -238.69775209 29.77043652 -241.32958984 26.60839844 C-245.92878418 22.36633851 -250.64855601 22.42533969 -256.58081055 22.61962891 C-267.56989087 23.27444042 -276.79965563 25.51271753 -285.07958984 33.17089844 C-289.87073316 39.18742634 -291.50438657 44.59010788 -291.42333984 52.24902344 C-290.69964916 58.40039423 -287.53389148 63.17917713 -282.89208984 67.17089844 C-278.64737651 70.18936126 -276.34623325 70.69756278 -271.07958984 70.17089844 C-265.57965609 66.8480218 -262.91233073 62.06606053 -259.69287109 56.59667969 C-258.07958984 54.17089844 -258.07958984 54.17089844 -255.07958984 52.17089844 C-249.63309993 52.39622603 -246.39245995 53.92455958 -241.95458984 56.98339844 C-232.17597874 63.37737907 -221.55436518 65.59957785 -210.07958984 67.17089844 C-210.07958984 67.83089844 -210.07958984 68.49089844 -210.07958984 69.17089844 C-210.73958984 69.25339844 -211.39958984 69.33589844 -212.07958984 69.42089844 C-217.31877481 70.73069468 -222.55299797 72.95717691 -226.07958984 77.17089844 C-227.06587401 79.20167528 -227.06587401 79.20167528 -227.76708984 81.35839844 C-228.01845703 82.07382813 -228.26982422 82.78925781 -228.52880859 83.52636719 C-228.71056641 84.0690625 -228.89232422 84.61175781 -229.07958984 85.17089844 C-230.10439453 85.25726563 -231.12919922 85.34363281 -232.18505859 85.43261719 C-233.54585565 85.5733893 -234.90652692 85.71538113 -236.26708984 85.85839844 C-236.940625 85.91189453 -237.61416016 85.96539062 -238.30810547 86.02050781 C-241.96388601 86.43066856 -244.00787761 87.11574272 -246.93896484 89.37011719 C-249.22563282 92.36198022 -250.16749348 94.67855937 -251.14208984 98.29589844 C-252.60655738 103.7083545 -252.60655738 103.7083545 -254.84130859 105.89355469 C-257.43378429 107.37303035 -260.03641451 108.43053053 -262.82958984 109.48339844 C-268.31387354 111.70115993 -272.57671885 114.38461336 -277.07958984 118.17089844 C-277.86849609 118.74195313 -278.65740234 119.31300781 -279.47021484 119.90136719 C-282.72333982 122.73080672 -284.94576643 125.89595688 -287.39208984 129.42089844 C-291.0424652 134.55435436 -294.75540543 139.12722259 -299.35302734 143.45996094 C-302.03933624 146.12195934 -304.04263811 148.98816135 -306.07958984 152.17089844 C-306.07958984 152.83089844 -306.07958984 153.49089844 -306.07958984 154.17089844 C-310.28332549 153.82058713 -313.17811131 153.24345717 -316.82958984 151.10839844 C-322.41629291 148.1418158 -328.18201777 148.39553774 -334.27880859 149.60839844 C-341.31731732 151.82089627 -347.10655821 156.78264489 -350.51708984 163.29589844 C-352.97350202 168.60527363 -353.28186999 173.86985333 -353.39208984 179.67089844 C-353.42947266 180.95996094 -353.46685547 182.24902344 -353.50537109 183.57714844 C-353.00457094 187.80408555 -352.21083602 189.32290644 -349.07958984 192.17089844 C-346.07174696 193.39886685 -346.07174696 193.39886685 -342.76708984 194.23339844 C-334.76991148 197.04539621 -332.63902869 201.86363818 -329.07958984 209.17089844 C-325.86630496 214.25776009 -321.75068387 217.24283704 -316.07958984 219.17089844 C-310.40092602 220.19672158 -304.69598537 220.748275 -298.95458984 221.29589844 C-297.33360436 221.46238674 -295.71275452 221.63020094 -294.09204102 221.79931641 C-284.36199322 222.80291237 -274.61997602 223.74678588 -264.86621094 224.48779297 C-252.43525039 225.49306817 -252.43525039 225.49306817 -247.07958984 228.17089844 C-247.95458984 232.92089844 -247.95458984 232.92089844 -249.07958984 235.17089844 C-249.57068407 239.42704837 -249.49290091 241.53093291 -247.14208984 245.17089844 C-244.19566075 248.32659097 -240.71990562 250.79333377 -237.28662109 253.38964844 C-232.15412623 257.53198058 -228.63520296 262.5488983 -225.45068359 268.27636719 C-222.25339514 272.69427288 -218.16253061 274.77875483 -213.14208984 276.60839844 C-211.44052734 277.23875 -211.44052734 277.23875 -209.70458984 277.88183594 C-207.25089868 278.75437697 -204.79235969 279.6133838 -202.32958984 280.45996094 C-201.11271484 280.88019531 -199.89583984 281.30042969 -198.64208984 281.73339844 C-197.52962891 282.1059375 -196.41716797 282.47847656 -195.27099609 282.86230469 C-190.88378304 284.66122314 -187.24897184 286.81290644 -184.14208984 290.42089844 C-182.20583929 295.43237046 -183.27096732 299.29091483 -185.31787109 304.04980469 C-186.35556437 306.23512773 -187.40573167 308.41455794 -188.46630859 310.58886719 C-190.16239056 314.3547441 -191.42148559 318.10958405 -192.64208984 322.04589844 C-195.54401952 331.04289626 -198.42985002 335.07692546 -206.14208984 340.60839844 C-211.38465178 344.40473639 -214.14669271 346.96528133 -216.07958984 353.17089844 C-216.07958984 358.18612309 -214.21761253 360.42551652 -211.07958984 364.17089844 C-211.07958984 365.16089844 -211.07958984 366.15089844 -211.07958984 367.17089844 C-212.26294922 367.43902344 -213.44630859 367.70714844 -214.66552734 367.98339844 C-224.37508078 370.33066141 -232.01609319 372.70257688 -239.07958984 380.17089844 C-239.66998047 380.78835938 -240.26037109 381.40582031 -240.86865234 382.04199219 C-245.36494731 387.36888352 -247.20230139 393.54517447 -249.07958984 400.17089844 C-251.41943359 400.79980469 -251.41943359 400.79980469 -254.07958984 401.17089844 C-260.85584286 395.71684114 -263.80932717 388.79210226 -266.05810547 380.64941406 C-268.29986247 373.22972676 -272.84487676 370.02771566 -279.39208984 366.35839844 C-280.46072266 365.75382812 -281.52935547 365.14925781 -282.63037109 364.52636719 C-283.43861328 364.0790625 -284.24685547 363.63175781 -285.07958984 363.17089844 C-284.33193359 362.86796875 -283.58427734 362.56503906 -282.81396484 362.25292969 C-275.15166197 359.26438429 -275.15166197 359.26438429 -270.07958984 353.17089844 C-268.89921557 344.06515407 -270.96524523 331.61108986 -276.38427734 324.03417969 C-279.37423237 320.74798487 -282.78189277 317.91859908 -286.11083984 314.98339844 C-293.93050779 307.79997644 -299.91761219 298.91315455 -305.14208984 289.73339844 C-305.51221191 289.0835498 -305.88233398 288.43370117 -306.26367188 287.76416016 C-309.96754648 280.98155951 -311.97488348 274.9181259 -310.07958984 267.17089844 C-309.13099916 264.74555439 -308.10793147 262.34817805 -307.01708984 259.98339844 C-304.14022561 253.27099753 -302.25940642 246.47196939 -304.07958984 239.17089844 C-307.81218854 234.38758791 -312.77046113 231.81443646 -318.01708984 228.98339844 C-318.80277344 228.54576172 -319.58845703 228.108125 -320.39794922 227.65722656 C-326.98676273 224.04578485 -333.06911564 222.09819556 -340.46704102 220.87768555 C-349.7162609 219.33436169 -358.25802819 217.67387334 -366.07958984 212.17089844 C-366.73958984 211.18089844 -367.39958984 210.19089844 -368.07958984 209.17089844 C-367.15726563 208.82478516 -367.15726563 208.82478516 -366.21630859 208.47167969 C-362.55563859 206.99456723 -359.69030697 205.81754011 -356.95458984 202.92089844 C-355.70258054 198.98601206 -355.67570501 196.00383053 -357.07958984 192.17089844 C-358.92978683 189.34194296 -360.95298463 186.697919 -363.01318359 184.01855469 C-375.71527548 166.51415963 -377.27386031 138.07641166 -374.83935547 117.10107422 C-372.43678125 102.25331859 -363.55147643 88.5792852 -356.38818359 75.61230469 C-350.81098106 65.20707609 -345.69207084 54.26193505 -349.20458984 42.35839844 C-350.82577318 39.04277828 -350.82577318 39.04277828 -353.76708984 37.48339844 C-358.49085828 37.03775991 -361.41794331 38.36251633 -365.07958984 41.17089844 C-397.30705501 73.92286123 -417.93547891 129.81320825 -418.45458984 175.04589844 C-418.4686084 175.88467529 -418.48262695 176.72345215 -418.49707031 177.58764648 C-418.45969083 182.27493812 -418.117221 185.38082653 -415.07958984 189.17089844 C-413.33312403 190.88057981 -413.33312403 190.88057981 -411.45458984 192.29589844 C-408.83598631 194.33995605 -408.17078592 194.8973102 -407.07958984 198.17089844 C-408.15208984 198.37714844 -409.22458984 198.58339844 -410.32958984 198.79589844 C-414.98740479 200.50376392 -415.83335223 201.8007673 -418.07958984 206.17089844 C-418.62396483 209.25154935 -418.60127428 212.23751777 -418.51708984 215.35839844 C-418.50242676 216.2377002 -418.48776367 217.11700195 -418.47265625 218.02294922 C-417.6119556 248.67376024 -406.54868581 279.56274206 -393.95458984 307.17089844 C-393.47618652 308.22631836 -392.9977832 309.28173828 -392.50488281 310.36914062 C-383.79249977 328.92191541 -373.5104643 336.17276296 -355.08349609 343.83886719 C-352.07958984 345.17089844 -352.07958984 345.17089844 -349.07958984 347.17089844 C-349.47930015 350.04881266 -349.79508067 351.81810706 -351.64208984 354.10839844 C-353.73603667 357.11275693 -353.69463385 358.54897259 -353.07958984 362.17089844 C-349.3589995 369.77257518 -343.10880625 375.39966752 -337.07958984 381.17089844 C-335.41292318 382.8375651 -333.74625651 384.50423177 -332.07958984 386.17089844 C-327.64693882 390.49446856 -322.88664559 394.06501985 -317.66162109 397.37792969 C-317.04942719 397.76819839 -316.43723328 398.1584671 -315.80648804 398.56056213 C-273.75603189 425.261576 -229.81508188 443.01284118 -179.07958984 441.17089844 C-177.26189195 441.12620095 -175.44418362 441.08192581 -173.62646484 441.03808594 C-149.98899511 440.32384457 -131.83377358 431.7742101 -113.20458984 417.79589844 C-108.95131925 414.63272535 -105.1445749 412.69995053 -100.07958984 411.17089844 C-100.12599609 411.83476563 -100.17240234 412.49863281 -100.22021484 413.18261719 C-100.39560686 417.47345765 -100.46475938 420.40055936 -98.51708984 424.29589844 C-95.19706338 426.84976495 -93.21217146 426.43376338 -89.07958984 426.17089844 C-77.97221484 423.42850684 -67.96690624 417.74423668 -58.07958984 412.17089844 C-57.12600586 411.63722656 -56.17242187 411.10355469 -55.18994141 410.55371094 C-43.213953 403.8212634 -31.54172584 397.12747007 -21.07958984 388.17089844 C-20.25330078 387.4709375 -19.42701172 386.77097656 -18.57568359 386.04980469 C-8.33024488 377.08710148 1.42531977 367.42445236 9.85400391 356.72949219 C11.89927996 354.19706154 14.06225243 351.85046685 16.29541016 349.48339844 C52.26185987 309.58993601 69.9272631 247.57867779 70.29541016 194.92089844 C70.30942871 193.62909668 70.32344727 192.33729492 70.33789062 191.00634766 C70.32846436 189.19287842 70.32846436 189.19287842 70.31884766 187.34277344 C70.31546387 186.27124023 70.31208008 185.19970703 70.30859375 184.09570312 C69.72670227 179.71138867 67.88730857 177.11327407 64.76416016 174.06933594 C61.14879445 171.65578136 57.50610168 170.22836023 53.42041016 168.79589844 C52.67404297 168.51101563 51.92767578 168.22613281 51.15869141 167.93261719 C47.67473055 166.6931904 45.67021692 165.98747796 42.01416016 166.88183594 C39.80875295 168.12827696 39.80875295 168.12827696 37.92041016 170.17089844 C37.35158953 173.72602737 37.31714591 176.16052335 39.19384766 179.30371094 C40.71381824 181.3130379 42.30123039 183.24130597 43.92041016 185.17089844 C46.60409172 189.19642079 46.6149609 192.438262 45.92041016 197.17089844 C43.92041016 200.60839844 43.92041016 200.60839844 41.92041016 203.17089844 C41.92041016 203.83089844 41.92041016 204.49089844 41.92041016 205.17089844 C35.73263723 207.47614717 35.73263723 207.47614717 32.52978516 206.27246094 C28.76535883 203.24063255 26.75128439 199.51111851 24.35791016 195.35839844 C23.42014694 193.7679417 22.48136424 192.17808557 21.54150391 190.58886719 C21.09524658 189.83395996 20.64898926 189.07905273 20.18920898 188.30126953 C17.13353558 182.50224158 17.13353558 182.50224158 11.85791016 179.17089844 C8.7268429 178.89932647 8.7268429 178.89932647 5.92041016 181.17089844 C4.76571174 184.75226188 4.92525293 187.25502684 5.95947266 190.83105469 C6.20753662 191.70149414 6.45560059 192.57193359 6.71118164 193.46875 C6.98647705 194.38108398 7.26177246 195.29341797 7.54541016 196.23339844 C7.96318726 197.64250488 7.96318726 197.64250488 8.3894043 199.08007812 C12.76920753 213.56856223 17.99264162 224.01608053 29.31884766 234.24902344 C31.28028903 236.60275308 31.68554381 238.13172795 31.92041016 241.17089844 C30.6106841 248.02076573 26.23132684 254.08887068 22.60791016 259.92089844 C15.03029169 272.17452326 9.44711021 282.88941779 6.78027344 297.18164062 C4.92241523 306.72891942 1.14256116 314.4741565 -5.39208984 321.67089844 C-6.36583266 322.78192624 -7.3384809 323.89391427 -8.31005859 325.00683594 C-8.78233887 325.54276367 -9.25461914 326.07869141 -9.74121094 326.63085938 C-11.62770061 328.80159576 -13.41913155 331.04171261 -15.20458984 333.29589844 C-16.15785156 334.48699219 -16.15785156 334.48699219 -17.13037109 335.70214844 C-18.50059176 337.43757822 -19.85045346 339.1891821 -21.18505859 340.95214844 C-30.66090803 353.1617385 -42.64910933 359.30946312 -56.06787109 366.43652344 C-58.99475896 368.00026992 -61.82113689 369.59399649 -64.56005859 371.46777344 C-67.07958984 373.17089844 -67.07958984 373.17089844 -70.07958984 374.17089844 C-70.21494141 373.59082031 -70.35029297 373.01074219 -70.48974609 372.41308594 C-72.22994551 366.09835033 -74.73461562 362.90505851 -80.07958984 359.17089844 C-79.07958984 356.17089844 -79.07958984 356.17089844 -75.84130859 354.40917969 C-73.81103233 353.43297016 -71.77307205 352.48605656 -69.71435547 351.57128906 C-62.9246477 348.25939837 -61.41090493 343.89621724 -58.9519043 337.01538086 C-57.71554988 333.39410607 -56.54608863 329.75670763 -55.39208984 326.10839844 C-54.7878418 324.24731445 -54.7878418 324.24731445 -54.17138672 322.34863281 C-49.14309341 306.60678995 -49.2595208 291.66884973 -51.39208984 275.42089844 C-51.5097168 274.49269287 -51.62734375 273.5644873 -51.74853516 272.6081543 C-52.63937111 266.37515055 -53.65921575 261.18787685 -58.70458984 256.98339844 C-68.4916097 251.72740629 -78.63815845 250.44034128 -89.60693359 251.89355469 C-99.24791204 252.97492826 -108.12561665 253.38191403 -116.07958984 247.17089844 C-119.04097841 244.03193102 -121.5774955 240.68172 -124.07958984 237.17089844 C-127.55091627 232.47263767 -130.897883 229.81255291 -136.07958984 227.17089844 C-135.47431375 224.07858841 -134.47309432 222.11081814 -132.63818359 219.56933594 C-129.59215223 214.84224526 -128.91578396 210.28887948 -128.14208984 204.79589844 C-126.79569186 196.76121126 -125.19124451 190.67664074 -120.07958984 184.17089844 C-119.38478516 183.22472656 -118.68998047 182.27855469 -117.97412109 181.30371094 C-116.45880916 179.25373645 -114.92344691 177.21843513 -113.36865234 175.19824219 C-111.87749325 173.22614611 -110.43157939 171.21874514 -109.04052734 169.17480469 C-101.43183656 158.00427658 -92.63300134 153.68761024 -79.62255859 150.58496094 C-73.3013678 149.55570406 -66.62071637 149.04150887 -60.70458984 151.67089844 C-58.52816368 153.74368526 -56.72739218 155.79517854 -54.82958984 158.10839844 C-50.29180302 163.52544463 -44.0251973 166.84205441 -37.07958984 168.17089844 C-35.58169242 168.26056131 -34.08015964 168.30103738 -32.57958984 168.29589844 C-31.82677734 168.29847656 -31.07396484 168.30105469 -30.29833984 168.30371094 C-28.13060446 168.25240392 -28.13060446 168.25240392 -26.30981445 167.67578125 C-23.56416593 167.05421572 -20.99214362 167.00765994 -18.17724609 166.95996094 C-17.03964844 166.93160156 -15.90205078 166.90324219 -14.72998047 166.87402344 C-12.34211533 166.82202855 -9.95406991 166.77773101 -7.56591797 166.74121094 C-5.85758789 166.69480469 -5.85758789 166.69480469 -4.11474609 166.64746094 C-3.07713135 166.6276416 -2.0395166 166.60782227 -0.97045898 166.58740234 C3.35638499 165.9640094 6.0088139 164.30253517 8.73291016 160.92089844 C10.27066673 157.35977794 10.39331684 155.02170998 9.92041016 151.17089844 C7.59980195 146.78752737 4.90881548 144.0624923 0.92041016 141.17089844 C0.19853516 140.59339844 -0.52333984 140.01589844 -1.26708984 139.42089844 C-2.98703754 137.98165412 -2.98703754 137.98165412 -5.07958984 138.17089844 C-5.07958984 136.85089844 -5.07958984 135.53089844 -5.07958984 134.17089844 C-3.95939453 133.78417969 -2.83919922 133.39746094 -1.68505859 132.99902344 C-0.21216075 132.4736586 1.26048242 131.94757938 2.73291016 131.42089844 C3.83989258 131.04191406 3.83989258 131.04191406 4.96923828 130.65527344 C10.4244021 128.6837361 10.4244021 128.6837361 13.92041016 124.17089844 C14.75440891 121.2577093 14.75440891 121.2577093 13.92041016 118.17089844 C10.46203966 113.97712732 6.26899173 111.19947182 0.92041016 110.17089844 C-7.64462111 109.41723056 -7.64462111 109.41723056 -15.07958984 113.17089844 C-17.92481293 116.01612153 -17.75898806 118.19543635 -18.07958984 122.17089844 C-17.88116113 124.87803307 -17.5036697 127.48505936 -17.07958984 130.17089844 C-23.18040287 131.12788872 -26.52856599 129.58981945 -31.57958984 126.23339844 C-37.84194808 122.09821697 -41.92255023 120.33949051 -49.51708984 121.85839844 C-53.2423851 122.18517872 -54.03474866 121.90680133 -57.20458984 120.29589844 C-63.96558842 116.9789641 -72.23462726 115.92477492 -79.51708984 118.17089844 C-85.87687175 121.10309262 -89.39334449 127.50987879 -93.07958984 133.17089844 C-95.07958984 135.17089844 -95.07958984 135.17089844 -98.07958984 135.42089844 C-101.07958984 135.17089844 -101.07958984 135.17089844 -103.07958984 133.17089844 C-103.20458984 130.54589844 -103.20458984 130.54589844 -103.07958984 128.17089844 C-102.21333984 127.92339844 -101.34708984 127.67589844 -100.45458984 127.42089844 C-96.7145296 126.03569094 -94.07935507 124.82185375 -91.07958984 122.17089844 C-90.11600572 118.31656193 -90.01934401 115.21329138 -90.24755859 111.26464844 C-90.55456029 104.69315273 -90.2216764 100.98357855 -85.79443359 95.98339844 C-85.22853516 95.38527344 -84.66263672 94.78714844 -84.07958984 94.17089844 C-83.05786373 92.90078277 -82.03699905 91.62997355 -81.01708984 90.35839844 C-76.34082658 84.65200182 -71.23409286 83.6737494 -64.26708984 82.79589844 C-55.86008021 81.55512005 -50.33454689 79.9266181 -44.64208984 73.35839844 C-42.38485533 68.75364003 -41.40174175 64.98346218 -42.60302734 59.99902344 C-45.41198663 52.31948337 -50.24213565 41.00835263 -56.07958984 35.17089844 C-60.24949648 34.7430817 -60.24949648 34.7430817 -63.89208984 36.48339844 C-66.63319644 40.37865517 -66.58891569 45.07849499 -67.07958984 49.67089844 C-67.94445471 57.76549303 -67.94445471 57.76549303 -69.07958984 61.17089844 C-73.07814208 63.17017455 -77.73519569 62.68522218 -82.07958984 62.17089844 C-85.14923998 61.06520582 -87.9677364 59.76095187 -90.86474609 58.26464844 C-92.96676879 57.023305 -92.96676879 57.023305 -95.07958984 57.17089844 C-94.07958357 54.47857385 -93.11261085 52.21788987 -91.45458984 49.85839844 C-88.24471855 43.5845591 -90.50815504 36.19022933 -92.07958984 29.67089844 C-92.36576172 28.43726563 -92.36576172 28.43726563 -92.65771484 27.17871094 C-93.12386288 25.17427437 -93.6006196 23.1723098 -94.07958984 21.17089844 C-93.26167969 21.80318359 -93.26167969 21.80318359 -92.42724609 22.44824219 C-87.22019747 26.23114076 -82.68387556 29.18615354 -76.07958984 28.17089844 C-72.70580507 26.78193978 -69.48133747 25.18444342 -66.21630859 23.55761719 C-59.97295006 20.79747736 -55.31563595 21.52610346 -49.07958984 23.92089844 C-46.56154711 25.00787962 -44.1044444 26.15831081 -41.65771484 27.39746094 C-38.12019121 29.14248099 -35.82201164 30.19945312 -31.82958984 30.04589844 C-27.46477065 27.06988535 -25.73774519 23.1030286 -24.07958984 18.17089844 C-23.24831081 13.63862056 -23.53174061 10.36620585 -25.45458984 6.17089844 C-43.22566946 -14.13890684 -69.27879671 -27.59103052 -94.39208984 -36.26660156 C-95.39425537 -36.62117432 -96.3964209 -36.97574707 -97.42895508 -37.34106445 C-103.67185041 -39.42271811 -109.47873929 -40.69677408 -116.07958984 -39.82910156 C-119.04953413 -38.1213836 -119.79048866 -36.80565848 -120.75146484 -33.55957031 C-121.27286391 -31.32248649 -121.71147108 -29.09593819 -122.07958984 -26.82910156 C-127.45681079 -27.29061953 -131.35366444 -30.30093385 -135.76708984 -33.14160156 C-141.98078983 -37.04503163 -148.00159131 -40.69717429 -155.07958984 -42.82910156 C-155.92094482 -43.08735718 -155.92094482 -43.08735718 -156.77929688 -43.35083008 C-161.73906296 -44.38205293 -166.91452983 -44.09551484 -171.96679688 -44.12426758 C-173.3611065 -44.13570691 -174.75537518 -44.15602916 -176.14941406 -44.18579102 C-189.43695292 -44.46887474 -202.24495926 -42.4263191 -212.14208984 -32.82910156 Z M-249.76708984 -37.76660156 C-251.00906128 -37.43160645 -251.00906128 -37.43160645 -252.27612305 -37.08984375 C-270.46906367 -32.03768115 -295.39559918 -24.58379627 -306.84521484 -8.32128906 C-308.60156946 -4.77523132 -308.12277223 -2.58455814 -307.07958984 1.17089844 C-304.12849998 4.46249868 -300.32900882 5.33494716 -296.07958984 6.17089844 C-287.37692802 6.62382508 -281.47278671 2.10416098 -274.51708984 -2.54003906 C-270.40774887 -4.71324823 -266.15467993 -3.22653407 -261.77490234 -2.38769531 C-260.62634766 -2.20400391 -260.62634766 -2.20400391 -259.45458984 -2.01660156 C-258.76107422 -1.88640625 -258.06755859 -1.75621094 -257.35302734 -1.62207031 C-253.14966868 -2.0048504 -250.28766297 -4.42331135 -247.58935547 -7.56323242 C-246.06030238 -9.58062051 -244.59116325 -11.62855621 -243.14208984 -13.70410156 C-239.6798598 -18.64752406 -236.3420465 -22.78145361 -231.55029297 -26.49707031 C-229.18555508 -28.63883823 -228.55017613 -30.73667739 -228.07958984 -33.82910156 C-228.48828237 -36.14659279 -228.48828237 -36.14659279 -230.07958984 -37.82910156 C-236.54357771 -41.42020593 -243.04855965 -39.58515109 -249.76708984 -37.76660156 Z " fill="#7C7F87" transform="translate(518.07958984375,117.8291015625)"/>
<path d="M0 0 C1.9375 1.5 1.9375 1.5 3 3 C0.69 3.33 -1.62 3.66 -4 4 C-4.33 5.98 -4.66 7.96 -5 10 C-6.98 10.66 -8.96 11.32 -11 12 C-9.84826645 9.53199953 -8.95216435 7.95216435 -7 6 C-8.32 5.67 -9.64 5.34 -11 5 C-10.6875 3.0625 -10.6875 3.0625 -10 1 C-6.44646071 -0.1845131 -3.72986522 -0.26641894 0 0 Z " fill="#4F505E" transform="translate(567,275)"/>
<path d="M0 0 C0 0.33 0 0.66 0 1 C-1.2375 1.0825 -2.475 1.165 -3.75 1.25 C-8.88474615 2.35845314 -11.78475502 5.12901286 -15.375 8.75 C-15.88643555 9.26336914 -16.39787109 9.77673828 -16.92480469 10.30566406 C-20.94249763 14.54168094 -23.78088986 18.43495068 -24.29296875 24.4296875 C-24.25816406 25.56664062 -24.22335937 26.70359375 -24.1875 27.875 C-24.16042969 29.02742188 -24.13335937 30.17984375 -24.10546875 31.3671875 C-24.07066406 32.23601562 -24.03585937 33.10484375 -24 34 C-27.1402179 29.28967316 -26.7923675 24.50449991 -26 19 C-24.47841413 15.83228564 -22.40468267 13.53651834 -20 11 C-19.4121875 10.28714844 -18.824375 9.57429687 -18.21875 8.83984375 C-12.55690871 1.99845219 -8.94579045 -0.4548707 0 0 Z " fill="#5F6167" transform="translate(453,201)"/>
<path d="M0 0 C0.33 0 0.66 0 1 0 C1.62965304 6.04466915 1.10376407 10.28915374 -2.43359375 15.328125 C-5.0586795 18.12996215 -7.28426713 19.03666185 -11 20 C-11.99 19.34 -12.98 18.68 -14 18 C-12.7625 17.608125 -11.525 17.21625 -10.25 16.8125 C-6.21242783 15.2573927 -4.15409298 13.8939373 -2 10 C-1.11752267 6.69324585 -0.49943796 3.38434932 0 0 Z " fill="#848895" transform="translate(564,306)"/>
<path d="M0 0 C0.33 0 0.66 0 1 0 C3.16186268 7.99117097 4.82541893 15.93346619 1 23.625 C0.01 25.295625 0.01 25.295625 -1 27 C-1.66 27 -2.32 27 -3 27 C-2.52590017 24.43986093 -1.94219578 22.91676193 -0.4375 20.75 C2.74213003 14.66722951 0.75857468 6.61043646 0 0 Z " fill="#52555A" transform="translate(426,147)"/>
<path d="M0 0 C0.90218841 3.21882476 1.31415375 6.36144515 1.625 9.6875 C1.72039062 10.66074219 1.81578125 11.63398438 1.9140625 12.63671875 C1.94242187 13.41660156 1.97078125 14.19648438 2 15 C1 16 1 16 -2.5625 16.0625 C-3.696875 16.041875 -4.83125 16.02125 -6 16 C-5.175 15.34 -4.35 14.68 -3.5 14 C-0.11885514 9.94262617 -0.66730901 8.15671036 -1 3 C-0.67 2.01 -0.34 1.02 0 0 Z " fill="#6B6D7A" transform="translate(500,233)"/>
<path d="M0 0 C-5.625 3 -5.625 3 -9 3 C-9 3.99 -9 4.98 -9 6 C-10.65 6 -12.3 6 -14 6 C-14 5.01 -14 4.02 -14 3 C-12.04486839 2.303447 -10.08577524 1.61800435 -8.125 0.9375 C-7.03445312 0.55464844 -5.94390625 0.17179688 -4.8203125 -0.22265625 C-2 -1 -2 -1 0 0 Z " fill="#DCDFE4" transform="translate(206,633)"/>
<path d="M0 0 C1.98 0 3.96 0 6 0 C5.67 1.98 5.34 3.96 5 6 C3.02 6.66 1.04 7.32 -1 8 C0.15173355 5.53199953 1.04783565 3.95216435 3 2 C2.01 2 1.02 2 0 2 C0 1.34 0 0.68 0 0 Z " fill="#5F646F" transform="translate(557,279)"/>
<path d="M0 0 C0.99 0.33 1.98 0.66 3 1 C-0.96 4.465 -0.96 4.465 -5 8 C-5.33 7.34 -5.66 6.68 -6 6 C-2.25 1.125 -2.25 1.125 0 0 Z " fill="#5D5E64" transform="translate(263,169)"/>
<path d="M0 0 C0 0.66 0 1.32 0 2 C-3.3125 3.625 -3.3125 3.625 -7 5 C-7.99 4.34 -8.98 3.68 -10 3 C-8.70990357 2.49596232 -7.41786211 1.99690074 -6.125 1.5 C-5.04605469 1.08234375 -5.04605469 1.08234375 -3.9453125 0.65625 C-2 0 -2 0 0 0 Z " fill="#9D9FA9" transform="translate(560,321)"/>
<path d="M0 0 C2 1 2 1 2 1 Z " fill="#000000" transform="translate(374,181)"/>
</svg>
